<svg width="879" height="36" viewBox="0 0 879 36" fill="none" xmlns="http://www.w3.org/2000/svg">
<g clip-path="url(#clip0_1305_3175)">
<path d="M702.037 17.6593V26.5497H699.22V4.60382H706.693C708.495 4.56882 710.228 5.25135 711.54 6.51139C712.853 7.68394 713.588 9.3815 713.553 11.1316C713.588 12.8991 712.853 14.5967 711.54 15.7867C710.228 17.0293 708.618 17.6593 706.71 17.6593H702.037ZM702.037 7.29893V14.9642H706.763C707.813 14.9992 708.828 14.5792 709.545 13.8266C711.033 12.3916 711.05 10.029 709.615 8.54148L709.545 8.47147C708.828 7.70144 707.813 7.28143 706.763 7.31643L702.037 7.29893ZM720.046 11.0441C722.128 11.0441 723.773 11.6041 724.981 12.7066C726.188 13.8266 726.783 15.3492 726.783 17.2918V26.5322H724.088V24.4496H723.966C722.793 26.1647 721.253 27.0221 719.311 27.0221C717.665 27.0221 716.265 26.5322 715.163 25.5521C714.078 24.6421 713.465 23.2945 713.5 21.8769C713.5 20.3194 714.095 19.0944 715.268 18.1669C716.44 17.2393 718.015 16.7843 719.975 16.7843C721.656 16.7843 723.021 17.0993 724.106 17.6943V17.0468C724.106 16.0843 723.686 15.1742 722.951 14.5617C722.198 13.8967 721.236 13.5291 720.238 13.5291C718.663 13.5291 717.42 14.1942 716.493 15.5243L714.008 13.9667C715.355 12.0241 717.368 11.0441 720.046 11.0441ZM716.405 21.947C716.405 22.682 716.755 23.3645 717.333 23.7845C717.963 24.2746 718.733 24.537 719.521 24.5195C720.711 24.5195 721.848 24.0471 722.688 23.207C723.616 22.332 724.088 21.2994 724.088 20.1094C723.213 19.4094 721.988 19.0594 720.413 19.0594C719.276 19.0594 718.313 19.3394 717.543 19.8819C716.79 20.4419 716.405 21.1244 716.405 21.947ZM742.254 11.5341L732.839 33.1649H729.933L733.434 25.6046L727.238 11.5516H730.301L734.764 22.332H734.834L739.191 11.5516L742.254 11.5341Z" fill="#5F6368"/>
<path d="M690.644 15.7347C690.644 14.8772 690.574 14.0197 690.434 13.1797H678.551V18.0273H685.359C685.078 19.5849 684.168 20.985 682.838 21.86V25.01H686.899C689.279 22.8225 690.644 19.5849 690.644 15.7347Z" fill="#4285F4"/>
<path d="M678.551 28.0554C681.946 28.0554 684.816 26.9354 686.899 25.0103L682.838 21.8603C681.701 22.6303 680.248 23.0678 678.551 23.0678C675.261 23.0678 672.478 20.8452 671.481 17.8701H667.298V21.1252C669.433 25.3604 673.791 28.0554 678.551 28.0554Z" fill="#34A853"/>
<path d="M671.481 17.8695C670.956 16.312 670.956 14.6144 671.481 13.0393V9.80176H667.298C666.409 11.5535 665.946 13.4902 665.946 15.4545C665.946 17.4188 666.409 19.3554 667.298 21.1072L671.481 17.8695Z" fill="#FBBC04"/>
<path d="M678.551 7.84197C680.353 7.80696 682.086 8.48948 683.381 9.73203L686.969 6.1444C684.693 3.99182 681.683 2.81928 678.551 2.85428C673.791 2.85428 669.433 5.54938 667.298 9.80204L671.481 13.0572C672.478 10.0645 675.261 7.84197 678.551 7.84197Z" fill="#EA4335"/>
</g>
<g clip-path="url(#clip1_1305_3175)">
<path fill-rule="evenodd" clip-rule="evenodd" d="M261.005 5.22757H225.841C225.123 5.22757 224.435 5.5121 223.927 6.01874C223.42 6.52538 223.134 7.21276 223.132 7.93011V28.2309C223.132 28.9493 223.417 29.6383 223.925 30.1463C224.433 30.6543 225.122 30.9397 225.841 30.9397H261.005C261.363 30.9423 261.717 30.8741 262.048 30.739C262.379 30.604 262.68 30.4049 262.933 30.1531C263.187 29.9013 263.388 29.6018 263.525 29.2719C263.663 28.942 263.733 28.5882 263.733 28.2309V7.93011C263.732 7.57353 263.66 7.22079 263.522 6.89199C263.384 6.5632 263.182 6.26481 262.929 6.01386C262.676 5.7629 262.376 5.5643 262.045 5.42938C261.715 5.29448 261.362 5.22589 261.005 5.22757Z" fill="#227FBB"/>
<path fill-rule="evenodd" clip-rule="evenodd" d="M226.792 14.4644L226.012 12.5612L225.232 14.4644H226.792ZM244.004 13.7095C243.828 13.7921 243.632 13.825 243.439 13.8047H242.05V12.7452H243.433C243.617 12.7289 243.802 12.7594 243.972 12.834C244.05 12.8711 244.115 12.931 244.158 13.0058C244.201 13.0806 244.22 13.1667 244.213 13.2527C244.219 13.3429 244.2 13.4331 244.158 13.5135C244.117 13.5939 244.055 13.6616 243.978 13.7095H244.004ZM253.894 14.4644L253.107 12.5612L252.314 14.4644H253.894ZM235.458 16.5262H234.285V12.7833L232.648 16.5262H231.626L229.964 12.7833V16.5262H227.642L227.205 15.4604H224.826L224.401 16.5262H223.132L225.187 11.7365H226.887L228.841 16.2724V11.7365H230.7L232.197 14.9783L233.555 11.7365H235.458V16.5136V16.5262ZM240.121 16.5262H236.315V11.7365H240.121V12.7325H237.45V13.6398H240.058V14.6167H237.45V15.5429H240.121V16.5326V16.5262ZM245.494 13.037C245.501 13.3036 245.428 13.5662 245.286 13.7918C245.144 14.0174 244.938 14.1962 244.695 14.3059C244.915 14.387 245.11 14.5249 245.26 14.7055C245.416 14.969 245.481 15.2769 245.444 15.581V16.5199H244.295V15.9236C244.344 15.6016 244.281 15.2726 244.118 14.991C243.877 14.8182 243.58 14.7454 243.287 14.7879H242.05V16.5262H240.895V11.7365H243.515C243.988 11.6912 244.465 11.7699 244.898 11.9649C245.086 12.0676 245.24 12.2221 245.342 12.4099C245.444 12.5978 245.491 12.811 245.475 13.0244L245.494 13.037ZM247.321 16.5262H246.161V11.7365H247.321V16.5136V16.5262ZM260.834 16.5262H259.216L257.053 12.9419V16.5262H254.731L254.287 15.4604H251.914L251.483 16.5262H250.144C249.548 16.5641 248.959 16.3762 248.495 15.9997C248.268 15.7558 248.095 15.4675 247.986 15.1529C247.876 14.8384 247.834 14.5045 247.861 14.1726C247.837 13.8351 247.881 13.4963 247.99 13.1759C248.098 12.8556 248.27 12.5604 248.495 12.3075C248.732 12.1005 249.007 11.9432 249.306 11.8451C249.605 11.747 249.92 11.7101 250.233 11.7365H251.337V12.7579H250.252C250.094 12.7393 249.934 12.7551 249.783 12.8043C249.632 12.8536 249.493 12.9352 249.377 13.0434C249.136 13.3517 249.019 13.7382 249.047 14.1282C249.012 14.5266 249.125 14.924 249.364 15.2447C249.474 15.3361 249.6 15.4049 249.736 15.4473C249.872 15.4898 250.015 15.5051 250.157 15.4921H250.671L252.276 11.7365H253.989L255.892 16.2534V11.7365H257.63L259.635 15.0671V11.7365H260.802V16.5136L260.834 16.5262ZM223.132 17.4461H225.079L225.524 16.3866H226.507L226.938 17.4461H230.776V16.6531L231.125 17.4461H233.117L233.46 16.6214V17.4461H242.976V15.7205H243.16C243.287 15.7205 243.325 15.7205 243.325 15.9553V17.4461H248.254V17.0401C248.823 17.3226 249.452 17.462 250.087 17.4461H252.162L252.606 16.3866H253.583L254.046 17.4461H258.024V16.4565L258.658 17.4461H261.83V10.804H258.658V11.5906L258.214 10.804H254.985V11.5906L254.573 10.804H250.183C249.526 10.774 248.872 10.9069 248.279 11.1909V10.804H245.241V11.1909C244.878 10.914 244.427 10.7766 243.972 10.804H232.87L232.128 12.5231L231.379 10.804H227.877V11.5906L227.49 10.804H224.515L223.132 13.9696V17.4461ZM263.733 20.9607H261.653C261.493 20.9442 261.332 20.975 261.189 21.0495C261.133 21.0862 261.088 21.1375 261.059 21.1978C261.03 21.2581 261.018 21.3253 261.024 21.392C261.022 21.4701 261.045 21.5468 261.089 21.6108C261.134 21.6749 261.198 21.7227 261.272 21.7474C261.415 21.7926 261.566 21.8119 261.716 21.8045H262.35C262.807 21.7693 263.26 21.9074 263.619 22.1914C263.662 22.2252 263.698 22.2659 263.727 22.3119L263.733 20.9607ZM263.733 24.1326C263.547 24.3574 263.309 24.5329 263.039 24.6435C262.769 24.7541 262.476 24.7966 262.185 24.7671H259.978V23.7203H262.173C262.337 23.7421 262.503 23.6989 262.636 23.5997C262.68 23.5606 262.715 23.5128 262.739 23.4592C262.763 23.4056 262.775 23.3476 262.775 23.289C262.777 23.229 262.765 23.1695 262.741 23.1147C262.717 23.0598 262.681 23.011 262.636 22.9717C262.517 22.8907 262.373 22.8526 262.23 22.8639C261.158 22.8322 259.819 22.9019 259.819 21.3858C259.819 20.6942 260.263 19.9646 261.462 19.9646H263.733V19.013H261.621C261.115 18.9868 260.614 19.1248 260.193 19.4064V19.013H257.066C256.58 18.988 256.1 19.1265 255.702 19.4064V19.013H250.125V19.4064C249.657 19.1363 249.124 19.0002 248.584 19.013H244.904V19.4064C244.425 19.1025 243.859 18.9643 243.293 19.013H239.176L238.237 20.0345L237.349 19.013H231.195V25.6933H237.235L238.205 24.6593L239.119 25.6933H242.843V24.1136H243.211C243.75 24.1489 244.291 24.0689 244.797 23.8789V25.6933H247.873V23.9423H248.026C248.21 23.9423 248.229 23.9423 248.229 24.139V25.6933H257.554C258.104 25.7142 258.646 25.5658 259.109 25.2683V25.6933H262.065C262.637 25.7068 263.206 25.5986 263.733 25.3761V24.1073V24.1326ZM259.178 22.2294C259.302 22.3648 259.396 22.5242 259.455 22.6979C259.514 22.8715 259.537 23.0555 259.521 23.2381C259.521 24.2659 258.887 24.748 257.726 24.748H255.486V23.7203H257.7C257.866 23.7381 258.033 23.6953 258.17 23.5997C258.211 23.5594 258.245 23.5111 258.268 23.4578C258.29 23.4044 258.302 23.347 258.303 23.289C258.303 23.2292 258.291 23.1701 258.267 23.1155C258.243 23.0608 258.208 23.0118 258.163 22.9717C258.044 22.8907 257.901 22.8526 257.757 22.8639C256.685 22.8322 255.353 22.9019 255.353 21.3858C255.353 20.6942 255.784 19.9646 256.983 19.9646H259.293V20.9797H257.199C257.041 20.9622 256.882 20.9931 256.742 21.0685C256.685 21.1039 256.638 21.1547 256.608 21.2152C256.577 21.2758 256.565 21.3437 256.571 21.4111C256.567 21.4893 256.59 21.5666 256.634 21.6308C256.679 21.695 256.744 21.7427 256.818 21.7664C256.962 21.8116 257.112 21.8309 257.262 21.8235H257.897C258.353 21.792 258.805 21.9298 259.166 22.2104L259.178 22.2294ZM248.882 21.9313C248.707 22.0168 248.511 22.0519 248.317 22.0328H246.928V20.9543H248.336C248.522 20.9363 248.71 20.9646 248.882 21.0368C248.957 21.08 249.019 21.1432 249.06 21.2193C249.102 21.2955 249.121 21.3817 249.117 21.4682C249.121 21.5582 249.102 21.6478 249.061 21.728C249.019 21.8082 248.958 21.8761 248.882 21.9249V21.9313ZM249.567 22.5277C249.789 22.606 249.984 22.7444 250.132 22.9273C250.285 23.1872 250.35 23.4901 250.316 23.7901V24.7417H249.174V24.1454C249.22 23.8206 249.155 23.4896 248.99 23.2064C248.749 23.0304 248.448 22.9553 248.153 22.9971H246.928V24.7417H245.78V19.9837H248.419C248.888 19.9426 249.359 20.0212 249.789 20.2121C249.982 20.3072 250.143 20.456 250.254 20.6406C250.364 20.8252 250.419 21.0377 250.411 21.2525C250.419 21.5213 250.346 21.7862 250.201 22.0127C250.057 22.2391 249.847 22.4164 249.599 22.5213L249.567 22.5277ZM251.045 19.9837H254.852V20.9733H252.149V21.8235H254.757V22.7941H252.149V23.7457H254.852V24.7417H251.045V19.9837ZM243.312 22.1723H241.834V20.9543H243.325C243.737 20.9543 244.023 21.1193 244.023 21.538C244.023 21.9567 243.75 22.1723 243.312 22.1723ZM240.698 24.3103L238.947 22.3627L240.698 20.4595V24.2659V24.3103ZM236.175 23.7457H233.365V22.7941H235.871V21.8235H233.365V20.9543H236.226L237.495 22.3436L236.194 23.7457H236.175ZM245.247 21.538C245.247 22.8639 244.257 23.143 243.261 23.143H241.834V24.7417H239.626L238.211 23.1557L236.752 24.7354H232.229V19.9837H236.822L238.224 21.5507L239.677 19.9837H243.325C244.232 19.9837 245.228 20.2375 245.228 21.557L245.247 21.538Z" fill="white"/>
</g>
<g clip-path="url(#clip2_1305_3175)">
<path d="M577.701 8.50012C579.072 8.61583 580.442 7.80583 581.301 6.77354V6.7705C582.144 5.7169 582.701 4.29179 582.564 2.85449C581.343 2.91235 579.848 3.66449 578.992 4.72115C578.201 5.62249 577.528 7.1085 577.701 8.50012ZM574.309 27.3554C575.825 27.2975 576.422 26.3597 578.249 26.3597C580.089 26.3597 580.625 27.3554 582.223 27.3341C583.88 27.3006 584.918 25.8299 585.932 24.3195C587.083 22.6051 587.564 20.9455 587.589 20.8541C587.555 20.8207 584.391 19.5904 584.355 15.8815C584.321 12.7755 586.858 11.3016 586.968 11.2103C585.539 9.05433 583.313 8.8229 582.537 8.76505L582.543 8.76809C580.554 8.64933 578.855 9.91305 577.917 9.91305C576.958 9.91305 575.521 8.8229 573.944 8.8564C571.903 8.89294 570.006 10.0653 568.968 11.9289C566.821 15.6714 568.408 21.2013 570.484 24.2494C571.501 25.7537 572.71 27.4132 574.309 27.3554ZM611.338 15.6044H614.456C614.718 14.2128 615.984 13.2962 617.723 13.2962C619.836 13.2962 621.024 14.2919 621.024 16.1342V17.3858L616.709 17.6537C612.702 17.8973 610.531 19.5661 610.531 22.462C610.543 25.3822 612.778 27.3281 615.987 27.331C618.159 27.331 620.168 26.2196 621.079 24.4474H621.146V27.1606H624.343V15.918C624.343 12.6628 621.773 10.5525 617.824 10.5525C614.157 10.5525 611.444 12.6811 611.338 15.6044ZM621.036 21.0429C621.036 23.1532 619.264 24.6575 616.925 24.6575C615.086 24.6575 613.911 23.7531 613.911 22.3858C613.911 20.9577 615.04 20.1385 617.199 20.0107L621.036 19.767V21.0429ZM594.005 4.56889V27.1575H597.464V19.4382H602.248C606.621 19.4382 609.681 16.39 609.681 11.9868C609.681 7.58354 606.669 4.56889 602.361 4.56889H594.005ZM606.167 11.9989C606.167 14.8492 604.456 16.4966 601.438 16.4966H597.464V7.52568H601.45C604.453 7.52568 606.167 9.14568 606.167 11.9989Z" fill="black"/>
<path d="M633.383 24.109L629.317 10.7715H625.709L631.556 27.2181L631.236 28.2138C630.709 29.9039 629.853 30.5677 628.325 30.5677C628.051 30.5677 627.527 30.5342 627.308 30.5098V33.223C627.515 33.2718 628.373 33.3052 628.635 33.3052L628.632 33.2992C632 33.2992 633.587 31.9898 634.972 28.0372L641.035 10.7715H637.518L633.453 24.109H633.383Z" fill="black"/>
</g>
<g clip-path="url(#clip3_1305_3175)">
<path d="M334.817 2.85449H290.983C289.598 2.85449 288.476 3.97709 288.476 5.36188V30.7982C288.476 32.183 289.598 33.3056 290.983 33.3056H334.817C336.202 33.3056 337.324 32.183 337.324 30.7982V5.36188C337.324 3.97709 336.202 2.85449 334.817 2.85449Z" fill="white"/>
<path d="M336.742 20.1123C336.742 20.1123 323.98 29.2265 300.605 33.3057H336.742V20.1123Z" fill="#F58025"/>
<path d="M293.119 13.001H291.17V19.8901H293.109C294.14 19.8901 294.884 19.6439 295.537 19.0947C295.922 18.7722 296.232 18.3683 296.445 17.9113C296.659 17.4545 296.771 16.9557 296.773 16.4503C296.773 14.4172 295.272 13.001 293.119 13.001ZM294.67 18.1761C294.253 18.5575 293.711 18.7238 292.853 18.7238H292.497V14.1683H292.853C293.711 14.1683 294.232 14.3236 294.67 14.7254C294.903 14.9439 295.089 15.2093 295.216 15.5045C295.343 15.7998 295.407 16.1185 295.405 16.4403C295.407 16.7653 295.343 17.0871 295.216 17.3858C295.09 17.6845 294.904 17.9536 294.67 18.1761Z" fill="#231F20"/>
<path d="M298.713 13.001H297.385V19.8901H298.713V13.001Z" fill="#231F20"/>
<path d="M301.959 15.6443C301.162 15.3459 300.928 15.1491 300.928 14.7769C300.928 14.343 301.345 14.0133 301.917 14.0133C302.126 14.0178 302.33 14.0705 302.516 14.1672C302.701 14.2637 302.863 14.402 302.988 14.5712L303.682 13.6506C303.132 13.1543 302.419 12.8821 301.682 12.8868C300.478 12.8868 299.559 13.7332 299.559 14.8608C299.559 15.8098 299.987 16.2958 301.234 16.75C301.551 16.8513 301.859 16.9826 302.152 17.1423C302.274 17.2158 302.374 17.3202 302.444 17.4452C302.514 17.5703 302.55 17.7116 302.55 17.8552C302.549 17.9886 302.521 18.1204 302.468 18.2425C302.414 18.3646 302.337 18.4745 302.241 18.5653C302.144 18.6563 302.031 18.7264 301.906 18.7714C301.782 18.8163 301.65 18.8352 301.519 18.8268C301.215 18.8318 300.917 18.7476 300.66 18.5846C300.403 18.4215 300.198 18.1865 300.07 17.9081L299.212 18.744C299.824 19.6527 300.558 20.0554 301.569 20.0554C302.948 20.0554 303.916 19.1271 303.916 17.7934C303.916 16.6988 303.469 16.2034 301.959 15.6443Z" fill="#231F20"/>
<path d="M304.336 16.45C304.332 16.9267 304.423 17.3993 304.603 17.8399C304.782 18.2804 305.048 18.68 305.383 19.0152C305.717 19.3503 306.115 19.6141 306.553 19.791C306.99 19.9679 307.458 20.0543 307.929 20.0451C308.507 20.0458 309.078 19.9082 309.594 19.6436V18.0618C309.063 18.5994 308.593 18.8163 307.991 18.8163C306.653 18.8163 305.704 17.8351 305.704 16.4401C305.694 16.1362 305.744 15.8334 305.851 15.5493C305.958 15.2651 306.12 15.0053 306.327 14.7851C306.534 14.5649 306.782 14.3886 307.057 14.2665C307.332 14.1444 307.629 14.0789 307.929 14.074C308.562 14.074 309.042 14.3027 309.594 14.8492V13.2681C309.093 12.9901 308.531 12.8446 307.96 12.845C307.488 12.839 307.019 12.9277 306.581 13.106C306.142 13.2843 305.743 13.5486 305.406 13.8838C305.07 14.2188 304.801 14.6181 304.618 15.0586C304.434 15.499 304.338 15.972 304.336 16.45Z" fill="#231F20"/>
<path d="M320.121 17.6284L318.306 13.001H316.855L319.744 20.0669H320.459L323.399 13.001H321.96L320.121 17.6284Z" fill="#231F20"/>
<path d="M323.999 19.8899H327.765V18.7239H325.326V16.8643H327.675V15.6974H325.326V14.1681H327.765V13.001H323.999V19.8899Z" fill="#231F20"/>
<path d="M333.022 15.0348C333.022 13.7451 332.145 13.001 330.613 13.001H328.645V19.8901H329.971V17.1226H330.144L331.982 19.8901H333.615L331.472 16.9878C332.472 16.782 333.022 16.0897 333.022 15.0348ZM330.359 16.1727H329.971V14.0861H330.38C331.207 14.0861 331.656 14.4367 331.656 15.1072C331.656 15.7998 331.207 16.1727 330.359 16.1727Z" fill="#231F20"/>
<path d="M317.254 16.4493C317.254 17.1738 317.042 17.8819 316.644 18.4843C316.247 19.0866 315.681 19.5561 315.02 19.8333C314.359 20.1105 313.631 20.183 312.929 20.0417C312.227 19.9003 311.582 19.5514 311.076 19.0392C310.57 18.5269 310.225 17.8742 310.085 17.1637C309.946 16.4532 310.017 15.7167 310.291 15.0474C310.565 14.3781 311.029 13.806 311.624 13.4035C312.219 13.001 312.919 12.7861 313.635 12.7861C314.11 12.786 314.581 12.8807 315.02 13.0648C315.459 13.2488 315.858 13.5187 316.194 13.8589C316.531 14.199 316.797 14.6028 316.979 15.0473C317.161 15.4918 317.254 15.9682 317.254 16.4493Z" fill="#F58025"/>
<path d="M333.731 13.1369C333.731 13.0162 333.649 12.9502 333.505 12.9502H333.312V13.5557H333.455V13.3208L333.623 13.5557H333.797L333.6 13.306C333.638 13.298 333.672 13.2767 333.696 13.2458C333.72 13.2147 333.733 13.1762 333.731 13.1369ZM333.48 13.2196H333.455V13.0612H333.481C333.551 13.0612 333.588 13.087 333.588 13.1392C333.588 13.1927 333.551 13.2196 333.48 13.2196Z" fill="#231F20"/>
<path d="M333.534 12.7247C333.43 12.7232 333.329 12.753 333.242 12.8101C333.155 12.8673 333.087 12.9492 333.047 13.0456C333.006 13.1419 332.995 13.2483 333.014 13.3512C333.033 13.4541 333.083 13.5488 333.155 13.6233C333.228 13.6979 333.321 13.7489 333.422 13.7698C333.524 13.7907 333.629 13.7806 333.725 13.7409C333.82 13.7011 333.902 13.6334 333.96 13.5465C334.018 13.4595 334.048 13.3571 334.048 13.2524C334.049 13.1134 333.995 12.9797 333.899 12.8807C333.802 12.7818 333.671 12.7256 333.534 12.7247ZM333.531 13.6861C333.446 13.6891 333.362 13.6664 333.289 13.6206C333.217 13.5749 333.16 13.5083 333.125 13.4294C333.09 13.3504 333.079 13.2628 333.094 13.1777C333.109 13.0925 333.149 13.0139 333.208 12.9517C333.267 12.8896 333.344 12.8467 333.427 12.8288C333.511 12.8109 333.597 12.8186 333.677 12.8509C333.756 12.8834 333.824 12.939 333.871 13.0106C333.919 13.0823 333.945 13.1668 333.944 13.2532C333.946 13.3658 333.904 13.4747 333.826 13.5558C333.749 13.637 333.643 13.6838 333.531 13.6861Z" fill="#231F20"/>
</g>
<g clip-path="url(#clip4_1305_3175)">
<path d="M196.887 32.8868V32.9692H196.957H196.995C196.998 32.9644 196.999 32.9589 196.999 32.9534C196.999 32.9478 196.998 32.9423 196.995 32.9375H196.957L196.887 32.8868ZM196.957 32.8359C196.971 32.83 196.986 32.827 197.001 32.827C197.017 32.827 197.032 32.83 197.046 32.8359C197.051 32.8469 197.054 32.8588 197.054 32.8709C197.054 32.883 197.051 32.8948 197.046 32.9058C197.05 32.9147 197.052 32.9244 197.052 32.9343C197.052 32.9441 197.05 32.9538 197.046 32.9629C197.023 32.9711 196.999 32.9711 196.976 32.9629L197.071 33.0707H196.995L196.906 32.9629V33.0707H196.843V32.7788L196.957 32.8359ZM196.957 33.2293C196.988 33.2383 197.021 33.2383 197.052 33.2293C197.083 33.2187 197.111 33.2014 197.135 33.1785C197.155 33.1558 197.172 33.1301 197.185 33.1024C197.21 33.0393 197.21 32.9689 197.185 32.9058C197.172 32.8781 197.155 32.8524 197.135 32.8297C197.111 32.805 197.083 32.7856 197.052 32.7726H196.957H196.862C196.831 32.7856 196.802 32.805 196.779 32.8297C196.745 32.8653 196.722 32.9101 196.713 32.9585C196.704 33.0069 196.71 33.0569 196.729 33.1024C196.74 33.1309 196.757 33.1568 196.779 33.1785C196.802 33.2032 196.831 33.2226 196.862 33.2356C196.893 33.2416 196.926 33.2416 196.957 33.2356V33.2293ZM196.957 32.6647C197.043 32.6648 197.125 32.6991 197.185 32.7598C197.216 32.7878 197.24 32.8225 197.255 32.8614C197.274 32.8998 197.284 32.9421 197.284 32.9851C197.284 33.028 197.274 33.0703 197.255 33.1088C197.242 33.1484 197.217 33.1835 197.185 33.2103C197.157 33.2405 197.122 33.2643 197.084 33.2801C197.044 33.2968 197.001 33.3055 196.957 33.3055C196.913 33.3055 196.87 33.2968 196.83 33.2801C196.791 33.2628 196.754 33.2392 196.722 33.2103C196.695 33.1804 196.674 33.1461 196.659 33.1088C196.64 33.0703 196.63 33.028 196.63 32.9851C196.63 32.9421 196.64 32.8998 196.659 32.8614C196.693 32.7849 196.754 32.7238 196.83 32.6901C196.872 32.6805 196.915 32.6805 196.957 32.6901V32.6647ZM166.994 31.5481C167.001 31.3566 167.064 31.1712 167.175 31.0153C167.287 30.8595 167.442 30.7401 167.621 30.6723C167.8 30.6045 167.996 30.5913 168.182 30.6343C168.369 30.6774 168.539 30.7748 168.671 30.9143C168.802 31.0537 168.889 31.229 168.921 31.4179C168.953 31.6069 168.929 31.8011 168.851 31.9761C168.772 32.1511 168.644 32.2991 168.482 32.4013C168.32 32.5035 168.131 32.5554 167.94 32.5505C167.806 32.5526 167.674 32.527 167.551 32.4754C167.428 32.4237 167.318 32.3473 167.226 32.2507C167.134 32.1541 167.063 32.0396 167.018 31.9143C166.973 31.789 166.954 31.6557 166.963 31.5227L166.994 31.5481ZM169.564 31.5227V29.9178H168.866V30.3111C168.747 30.1562 168.593 30.0323 168.416 29.9495C168.24 29.8667 168.046 29.8275 167.851 29.8353C167.403 29.8353 166.974 30.013 166.658 30.3295C166.341 30.646 166.163 31.0752 166.163 31.5227C166.163 31.9703 166.341 32.3995 166.658 32.716C166.974 33.0324 167.403 33.2103 167.851 33.2103C168.045 33.2177 168.238 33.1791 168.415 33.0974C168.591 33.0159 168.746 32.8936 168.866 32.7408V33.1278H169.564V31.5227ZM193.163 31.5227C193.174 31.3337 193.241 31.1519 193.354 30.9999C193.467 30.8481 193.622 30.7325 193.8 30.6677C193.978 30.6029 194.171 30.5917 194.356 30.6354C194.54 30.679 194.708 30.7756 194.838 30.9134C194.968 31.0511 195.055 31.2239 195.088 31.4105C195.121 31.5971 195.099 31.7893 195.024 31.9633C194.949 32.1374 194.825 32.2857 194.667 32.39C194.509 32.4944 194.323 32.5502 194.134 32.5505C194.001 32.5516 193.87 32.5254 193.748 32.4734C193.626 32.4214 193.515 32.3448 193.424 32.2483C193.333 32.1518 193.263 32.0376 193.218 31.9128C193.173 31.788 193.155 31.6552 193.163 31.5227ZM195.764 31.5227V28.6299H195.073V30.3111C194.956 30.1556 194.803 30.0309 194.628 29.948C194.452 29.8651 194.258 29.8263 194.064 29.8353C193.617 29.8353 193.187 30.013 192.871 30.3295C192.554 30.646 192.377 31.0752 192.377 31.5227C192.377 31.9703 192.554 32.3995 192.871 32.716C193.187 33.0324 193.617 33.2103 194.064 33.2103C194.258 33.2188 194.45 33.1806 194.626 33.0989C194.801 33.0171 194.955 32.8944 195.073 32.7408V33.1278H195.777L195.764 31.5227ZM178.242 30.4633C178.347 30.4608 178.451 30.479 178.549 30.5169C178.646 30.5549 178.735 30.6118 178.811 30.6843C178.886 30.7568 178.947 30.8436 178.988 30.9396C179.03 31.0356 179.053 31.139 179.054 31.2436H177.392C177.404 31.0282 177.499 30.8259 177.658 30.68C177.817 30.5342 178.027 30.4564 178.242 30.4633ZM178.242 29.8289C177.795 29.8348 177.368 30.0183 177.055 30.3389C176.743 30.6595 176.571 31.0911 176.577 31.5386C176.583 31.9862 176.766 32.4131 177.087 32.7254C177.408 33.0377 177.839 33.2098 178.287 33.2039C178.765 33.2214 179.233 33.0609 179.6 32.7535L179.257 32.2333C178.993 32.4467 178.664 32.5651 178.325 32.5695C178.094 32.5891 177.865 32.5179 177.686 32.3709C177.507 32.224 177.392 32.013 177.367 31.7829H179.752C179.752 31.7004 179.752 31.6116 179.752 31.5165C179.772 31.3031 179.748 31.088 179.68 30.8846C179.613 30.6812 179.504 30.4943 179.36 30.3354C179.216 30.1766 179.041 30.0496 178.845 29.9624C178.649 29.8751 178.437 29.8298 178.223 29.8289H178.242ZM186.661 31.5165C186.672 31.3273 186.738 31.1455 186.851 30.9936C186.964 30.8417 187.12 30.7262 187.298 30.6614C187.476 30.5966 187.669 30.5853 187.853 30.629C188.038 30.6727 188.205 30.7694 188.335 30.9071C188.465 31.0448 188.552 31.2177 188.585 31.4042C188.618 31.5908 188.596 31.7829 188.521 31.957C188.446 32.131 188.322 32.2794 188.164 32.3837C188.006 32.488 187.821 32.5438 187.631 32.5442C187.499 32.5453 187.367 32.5191 187.245 32.4671C187.123 32.4151 187.013 32.3384 186.922 32.242C186.831 32.1456 186.76 32.0313 186.716 31.9064C186.671 31.7816 186.652 31.6488 186.661 31.5165ZM189.255 31.5165V29.9178H188.558V30.3111C188.44 30.1555 188.286 30.0308 188.109 29.9479C187.932 29.8651 187.738 29.8264 187.542 29.8353C187.095 29.8353 186.666 30.013 186.349 30.3295C186.033 30.646 185.855 31.0752 185.855 31.5227C185.855 31.9703 186.033 32.3995 186.349 32.716C186.666 33.0324 187.095 33.2103 187.542 33.2103C187.737 33.2188 187.93 33.1806 188.107 33.0989C188.284 33.0172 188.438 32.8945 188.558 32.7408V33.1278H189.255V31.5227V31.5165ZM182.715 31.5165C182.705 31.7437 182.742 31.9707 182.825 32.1825C182.909 32.3943 183.035 32.5862 183.197 32.746C183.359 32.9057 183.553 33.0295 183.766 33.1095C183.979 33.1895 184.207 33.2238 184.434 33.2103C184.854 33.2313 185.266 33.0932 185.589 32.8233L185.252 32.2587C185.01 32.4453 184.714 32.5478 184.409 32.5505C184.136 32.5505 183.875 32.4422 183.682 32.2495C183.489 32.0568 183.381 31.7954 183.381 31.5227C183.381 31.2502 183.489 30.9888 183.682 30.796C183.875 30.6033 184.136 30.495 184.409 30.495C184.713 30.4986 185.008 30.5985 185.252 30.7805L185.589 30.2159C185.264 29.9505 184.853 29.8149 184.434 29.8353C184.208 29.8227 183.982 29.8575 183.77 29.9376C183.558 30.0176 183.365 30.141 183.204 30.2999C183.043 30.4588 182.916 30.6496 182.833 30.8602C182.75 31.0708 182.712 31.2965 182.721 31.5227L182.715 31.5165ZM191.723 29.8353C191.553 29.8304 191.385 29.8715 191.237 29.9541C191.088 30.0367 190.965 30.1579 190.879 30.3047V29.9178H190.213V33.1278H190.911V31.3261C190.911 30.7995 191.14 30.5014 191.596 30.5014C191.746 30.5005 191.895 30.5285 192.034 30.5839L192.243 29.9495C192.085 29.8904 191.917 29.8603 191.749 29.8607L191.723 29.8353ZM173.015 30.1715C172.631 29.9436 172.192 29.8272 171.746 29.8353C170.934 29.8353 170.407 30.2286 170.407 30.863C170.407 31.3895 170.794 31.7131 171.518 31.8146L171.847 31.859C172.228 31.9098 172.412 32.0113 172.412 32.1952C172.412 32.3792 172.152 32.5822 171.676 32.5822C171.293 32.5944 170.917 32.4759 170.61 32.246L170.281 32.7916C170.686 33.0777 171.174 33.2245 171.67 33.2103C172.596 33.2103 173.135 32.7726 173.135 32.1635C173.135 31.5545 172.71 31.3007 172.012 31.1992L171.683 31.1549C171.384 31.1168 171.143 31.0533 171.143 30.8376C171.143 30.622 171.372 30.4633 171.778 30.4633C172.129 30.4681 172.474 30.5619 172.78 30.7362L173.078 30.1715H173.015ZM182.03 29.8353C181.859 29.8306 181.69 29.8717 181.541 29.9543C181.391 30.0368 181.266 30.1578 181.179 30.3047V29.9178H180.501V33.1278H181.198V31.3261C181.198 30.7995 181.427 30.5014 181.884 30.5014C182.034 30.4999 182.182 30.5279 182.321 30.5839L182.537 29.9495C182.379 29.8904 182.211 29.8603 182.042 29.8607L182.03 29.8353ZM176.079 29.9431H174.918V28.9408H174.233V29.9178H173.598V30.5521H174.233V32.0366C174.233 32.7852 174.525 33.2293 175.349 33.2293C175.658 33.2298 175.962 33.1442 176.225 32.9819L176.022 32.3475C175.83 32.4622 175.611 32.5254 175.387 32.5314C175.039 32.5314 174.924 32.3158 174.924 31.9923V30.5585H176.066L176.079 29.9431ZM165.637 33.1278V31.1168C165.647 30.9475 165.621 30.7779 165.561 30.6194C165.501 30.4609 165.408 30.3169 165.288 30.197C165.168 30.0771 165.024 29.9839 164.865 29.9238C164.707 29.8636 164.537 29.8377 164.368 29.8479C164.146 29.836 163.925 29.8824 163.727 29.9826C163.529 30.0828 163.36 30.2332 163.239 30.4189C163.13 30.2374 162.974 30.0887 162.787 29.9882C162.601 29.8877 162.391 29.8393 162.179 29.8479C161.995 29.8386 161.811 29.8775 161.647 29.961C161.482 30.0444 161.342 30.1695 161.24 30.3237V29.9304H160.549V33.1405H161.253V31.3452C161.238 31.2354 161.247 31.1236 161.28 31.0179C161.314 30.9122 161.37 30.8151 161.445 30.7339C161.52 30.6525 161.613 30.5889 161.716 30.5476C161.818 30.5063 161.929 30.4884 162.04 30.495C162.503 30.495 162.738 30.7995 162.738 31.3388V33.1278H163.442V31.3452C163.428 31.2355 163.438 31.1243 163.471 31.0191C163.505 30.9139 163.561 30.8173 163.636 30.7362C163.711 30.6552 163.803 30.5916 163.906 30.5499C164.008 30.5082 164.118 30.4895 164.228 30.495C164.704 30.495 164.933 30.7932 164.933 31.3388V33.1278H165.637Z" fill="#231F20"/>
<path d="M197.281 22.4441V21.9746H197.16L197.021 22.2982L196.881 21.9746H196.754V22.4441H196.843V22.0952L196.976 22.3997H197.065L197.198 22.0888V22.4441H197.281ZM196.507 22.4441V22.0571H196.665V21.9746H196.266V22.0571H196.418V22.4441H196.507Z" fill="#F79410"/>
<path d="M183.381 24.4616H172.799V5.42969H183.381V24.4616Z" fill="#FF5F00"/>
<path d="M173.471 14.952C173.468 13.1201 173.882 11.3116 174.683 9.66383C175.483 8.01604 176.648 6.57231 178.09 5.44236C176.305 4.04102 174.162 3.17001 171.905 2.92886C169.648 2.6877 167.37 3.08611 165.329 4.07858C163.288 5.07105 161.567 6.61755 160.364 8.54142C159.16 10.4653 158.521 12.6889 158.521 14.9583C158.521 17.2278 159.16 19.4514 160.364 21.3752C161.567 23.2992 163.288 24.8456 165.329 25.8381C167.37 26.8305 169.648 27.229 171.905 26.9878C174.162 26.7467 176.305 25.8757 178.09 24.4743C176.647 23.3437 175.481 21.899 174.681 20.2499C173.881 18.601 173.467 16.7913 173.471 14.9583" fill="#EB001B"/>
<path d="M197.661 14.9521C197.663 17.2225 197.025 19.4475 195.821 21.3724C194.617 23.2974 192.896 24.8445 190.854 25.8367C188.812 26.829 186.532 27.2263 184.274 26.9831C182.017 26.7399 179.874 25.8661 178.09 24.4618C179.532 23.3298 180.698 21.885 181.499 20.2365C182.301 18.588 182.717 16.7789 182.717 14.9458C182.717 13.1126 182.301 11.3035 181.499 9.65501C180.698 8.0065 179.532 6.56171 178.09 5.42979C179.874 4.02506 182.018 3.15119 184.276 2.90826C186.534 2.66533 188.814 3.06314 190.857 4.05617C192.899 5.04918 194.62 6.59725 195.824 8.52314C197.027 10.449 197.664 12.6748 197.661 14.9458" fill="#F79E1B"/>
</g>
<g clip-path="url(#clip5_1305_3175)">
<path d="M24.5862 4.29836L18.1939 23.9539L16.9845 18.4254C15.1493 13.6407 11.9054 9.52568 7.68164 6.62406L13.8082 31.8746H21.184L31.5101 4.33823H24.5862V4.29836ZM79.6457 4.29836H72.2698L60.9603 31.8214H67.8443L69.3195 27.8345H78.1705L79.1539 31.8214H85.0545L79.6457 4.29836ZM70.7947 22.9705L74.7816 12.6576L76.7484 22.9705H70.7947ZM51.1258 12.1526C51.1258 10.6907 52.1093 9.20228 55.5513 9.20228C57.3453 9.37212 59.0523 10.055 60.4685 11.1692L61.9437 5.2818C59.9118 4.43155 57.7503 3.93273 55.5513 3.80664C48.1755 3.80664 44.7335 7.79357 44.7335 12.1659C44.7335 21.0035 54.5678 19.5417 54.5678 23.9539C54.5678 24.9373 54.0761 26.4125 50.1424 26.4125C47.7695 26.4097 45.4239 25.9071 43.2583 24.9373L42.2748 30.838C44.5727 31.9349 47.1077 32.4419 49.6506 32.3132C54.0761 32.8049 60.9603 28.8712 60.9603 23.0104C60.9603 16.0863 51.1258 15.608 51.1258 12.1526Z" fill="#1565C0"/>
<path d="M30.4863 32.3131H37.3705L41.796 4.79004H34.4201L30.4863 32.3131Z" fill="#1565C0"/>
<path d="M17.2766 19.5287L14.7517 7.24896C14.4021 6.49276 13.8376 5.85629 13.1285 5.41904C12.4195 4.98178 11.5973 4.76312 10.7647 4.79035H0C0 4.79035 14.2599 9.21584 17.2766 19.5287Z" fill="#FF9800"/>
</g>
<path d="M116.307 31.3841L116.807 28.2439H115.693H110.44L114.095 5.03428C114.104 4.96242 114.14 4.89643 114.195 4.84871C114.252 4.80442 114.322 4.77938 114.395 4.77734H123.258C126.214 4.77734 128.241 5.39112 129.311 6.60441C129.785 7.11338 130.115 7.73907 130.267 8.41688C130.434 9.24151 130.434 10.0906 130.267 10.9152V11.6289L130.767 11.9144C131.148 12.1037 131.491 12.3598 131.78 12.6705C132.217 13.1974 132.498 13.8353 132.594 14.5123C132.701 15.3973 132.662 16.2945 132.479 17.1672C132.292 18.2276 131.92 19.2464 131.381 20.1787C130.945 20.9266 130.356 21.5734 129.653 22.0775C128.946 22.5604 128.158 22.9127 127.327 23.1191C126.394 23.3548 125.435 23.4698 124.472 23.4617H123.772C123.282 23.4625 122.807 23.6338 122.431 23.947C122.052 24.2667 121.803 24.7137 121.732 25.2031V25.4886L120.86 31.0269V31.2414C120.871 31.2789 120.871 31.3181 120.86 31.3556H120.775L116.307 31.3841Z" fill="#253D80"/>
<path d="M131.238 11.0576L131.153 11.5862C129.982 17.5812 125.972 19.6652 120.862 19.6652H118.264C117.638 19.6644 117.106 20.1179 117.008 20.7354L115.68 29.1856L115.295 31.5836C115.265 31.7761 115.321 31.971 115.447 32.1187C115.573 32.2663 115.757 32.3528 115.951 32.3544H120.576C121.124 32.3544 121.591 31.9539 121.675 31.4123V31.1839L122.546 25.6603V25.3601C122.623 24.821 123.085 24.4197 123.631 24.4181H124.387C128.855 24.4181 132.366 22.6057 133.38 17.2811C133.928 15.4613 133.59 13.4899 132.466 11.9573C132.11 11.5911 131.694 11.2876 131.238 11.0576Z" fill="#189BD7"/>
<path d="M130.011 10.5724L129.469 10.4297L128.869 10.3155C128.113 10.2021 127.35 10.1499 126.585 10.1581H119.62C119.457 10.154 119.296 10.1882 119.148 10.2584C118.818 10.4134 118.587 10.7241 118.535 11.0863L117.107 20.4639V20.7355C117.205 20.118 117.739 19.6637 118.364 19.6645H120.961C126.071 19.6645 130.082 17.5805 131.253 11.5855L131.338 11.0577C131.031 10.8987 130.711 10.7649 130.382 10.658L130.011 10.5724Z" fill="#242E65"/>
<path d="M118.534 11.0864C118.587 10.725 118.817 10.4135 119.149 10.2585C119.295 10.1883 119.457 10.1541 119.619 10.1582H126.585C127.349 10.15 128.113 10.2022 128.869 10.3156L129.468 10.4298L130.011 10.5725L130.282 10.6581C130.611 10.765 130.931 10.8988 131.238 11.0578C131.702 9.2748 131.277 7.37685 130.096 5.96201C128.669 4.44897 126.328 3.80664 123.273 3.80664H114.395C113.77 3.80591 113.238 4.2599 113.139 4.87719L109.442 28.3008C109.409 28.5218 109.473 28.7461 109.618 28.9158C109.764 29.0855 109.975 29.1842 110.198 29.1858H115.68L117.107 20.4648L118.534 11.0864Z" fill="#253D80"/>
<path d="M449.771 27.0457H452.76L453.28 28.7127H455.118L452.263 20.6124H450.312L447.427 28.7135H449.208L449.771 27.0457ZM451.261 22.4418H451.283L452.286 25.644H450.222L451.261 22.4418ZM446.935 26.3135C446.935 25.5121 446.676 24.7226 445.684 24.3514C446.022 24.1826 446.676 23.8561 446.676 22.6922C446.676 21.8571 446.169 20.6147 444.183 20.6147H440.246V28.7167H443.676C445.335 28.7167 445.775 28.4341 446.237 27.9805C446.665 27.5653 446.935 26.9531 446.935 26.3135ZM441.872 22.0157H443.812C444.579 22.0157 445.053 22.2182 445.053 22.8837C445.053 23.5281 444.524 23.7871 443.856 23.7871H441.872V22.0157ZM443.946 27.3165H441.872V25.1496H444.026C444.636 25.1496 445.244 25.4235 445.244 26.1314C445.243 26.9531 444.769 27.3165 443.946 27.3165ZM468.143 23.9315L471.64 28.7127H469.462L466.958 25.159L466.169 25.9721V28.7127H464.476V20.6124H466.169V23.9064L469.261 20.6124H471.449L468.143 23.9315ZM447.428 33.2114C447.428 32.4368 447.242 32.3097 446.901 32.1598C447.311 32.0208 447.543 31.63 447.543 31.1701C447.543 30.8122 447.342 29.9983 446.238 29.9983H444.139V34.147H444.99V32.5247H445.885C446.527 32.5247 446.562 32.7453 446.562 33.3088C446.562 33.7357 446.595 33.9523 446.654 34.1462H447.613V34.0379C447.428 33.968 447.428 33.8166 447.428 33.2114ZM446.004 31.827H444.99V30.7149H446.069C446.577 30.7149 446.676 31.0366 446.676 31.258C446.675 31.6661 446.457 31.827 446.004 31.827ZM448.816 13.5229C448.81 13.3369 448.804 13.1124 448.795 12.8534C448.78 12.5913 448.847 12.3056 448.875 11.983C448.908 11.6597 448.952 11.3089 449.074 10.951C449.177 10.59 449.267 10.1944 449.465 9.82473C449.552 9.6348 449.641 9.44015 449.734 9.24394C449.831 9.05087 449.966 8.87585 450.082 8.6867C450.311 8.2982 450.608 7.95681 450.913 7.6154C451.206 7.2583 451.57 6.98595 451.9 6.67201C452.263 6.41537 452.609 6.11792 452.98 5.90837C453.345 5.67841 453.705 5.47199 454.059 5.30247C454.409 5.11332 454.756 4.98539 455.073 4.84412C455.561 4.65419 455.996 4.50664 456.354 4.40147C456.205 4.03338 456.076 3.65038 455.981 3.24148C455.881 2.82159 455.796 2.39149 455.788 1.90332C456.258 2.03439 456.652 2.22589 457.035 2.42603C457.416 2.62851 457.764 2.85376 458.089 3.09863C458.746 3.58288 459.305 4.14169 459.813 4.74131C460.198 5.19495 460.231 5.8291 459.946 6.31335L459.886 6.41223C459.42 7.19158 458.865 7.91677 458.193 8.56505C457.862 8.89076 457.495 9.19528 457.087 9.47547C456.882 9.61282 456.667 9.74624 456.448 9.87496C456.22 9.99896 455.981 10.1135 455.716 10.214C455.698 9.93303 455.702 9.66618 455.722 9.40875C455.747 9.15447 455.78 8.90647 455.82 8.66081C455.907 8.17656 456.031 7.71586 456.191 7.2787C456.207 7.23083 456.226 7.18687 456.244 7.13978C456.088 7.1594 455.926 7.18059 455.751 7.20571C455.477 7.26457 455.163 7.3046 454.85 7.39564C454.529 7.46864 454.2 7.57066 453.866 7.69231C453.517 7.79512 453.203 7.97328 452.848 8.11534C452.535 8.30841 452.174 8.46774 451.878 8.70319C451.567 8.92766 451.254 9.15369 450.998 9.43388C450.867 9.56966 450.715 9.69366 450.597 9.83807C450.485 9.98641 450.371 10.1363 450.261 10.2807C450.017 10.5633 449.866 10.8898 449.7 11.1919C449.518 11.4894 449.408 11.7986 449.313 12.0882C449.224 12.3786 449.096 12.6415 449.058 12.8895C449.011 13.1375 448.97 13.3534 448.936 13.5323C448.869 13.8934 448.83 14.1005 448.83 14.1005C448.83 14.1005 448.827 13.8902 448.816 13.5229ZM440.247 29.9983H443.622V30.7353H442.365V34.1493H441.501V30.7353H440.247V29.9983ZM449.353 29.9983L447.875 34.147H448.788L449.076 33.2907H450.608L450.874 34.147H451.816L450.356 29.9983H449.353ZM449.309 32.5749L449.842 30.9354H449.85L450.367 32.5749H449.309ZM456.971 15.9991C456.627 16.1976 456.284 16.3373 455.972 16.4873C455.488 16.6913 455.061 16.8514 454.704 16.9676C454.866 17.3302 455.005 17.71 455.113 18.1158C455.221 18.5333 455.321 18.9595 455.346 19.4461C454.869 19.3299 454.471 19.1502 454.084 18.9619C453.694 18.7719 453.34 18.5577 453.008 18.3222C452.339 17.8576 451.763 17.3153 451.237 16.7321C450.838 16.2887 450.785 15.6569 451.057 15.164L451.115 15.0651C451.557 14.2709 452.09 13.53 452.742 12.8621C453.063 12.5254 453.42 12.2107 453.817 11.9187C454.02 11.7751 454.227 11.6354 454.445 11.5011C454.668 11.3701 454.905 11.2476 455.165 11.1401C455.191 11.4195 455.195 11.6872 455.182 11.9454C455.164 12.1997 455.14 12.4492 455.109 12.6965C455.036 13.1823 454.925 13.6453 454.779 14.0896C454.763 14.1366 454.744 14.1814 454.73 14.2285C454.883 14.2057 455.046 14.179 455.221 14.1476C455.494 14.0825 455.806 14.0323 456.114 13.9318C456.433 13.8494 456.76 13.7387 457.088 13.6061C457.435 13.4939 457.743 13.3055 458.093 13.1532C458.4 12.95 458.758 12.782 459.045 12.5371C459.349 12.3048 459.655 12.067 459.902 11.7813C460.032 11.6416 460.178 11.5121 460.294 11.3654C460.401 11.2123 460.509 11.0601 460.614 10.9117C460.851 10.6213 460.992 10.2917 461.147 9.98483C461.321 9.6811 461.421 9.37031 461.505 9.07677C461.586 8.78403 461.706 8.51796 461.737 8.26917C461.776 8.01959 461.81 7.80219 461.839 7.62324C461.901 7.26065 461.93 7.05266 461.93 7.05266C461.93 7.05266 461.946 7.26144 461.965 7.62717C461.975 7.81318 461.987 8.03843 462.004 8.29664C462.027 8.55799 461.971 8.84681 461.95 9.16859C461.927 9.49273 461.891 9.84514 461.782 10.2054C461.689 10.568 461.61 10.9675 461.424 11.3418C461.343 11.5349 461.259 11.7319 461.174 11.9305C461.08 12.1267 460.954 12.3056 460.843 12.4987C460.624 12.8942 460.34 13.2427 460.045 13.5935C459.761 13.9577 459.406 14.2426 459.086 14.5652C458.729 14.8336 458.392 15.1405 458.027 15.361C457.674 15.6027 457.319 15.8201 456.971 15.9991ZM460.411 29.9983H463.363V30.7353H461.278V31.6716H463.105V32.4054H461.278V34.1501H460.411V29.9983ZM454.908 29.9983H455.718V34.147H454.849L453.157 31.1881H453.143V34.147H452.336V29.9983H453.248L454.897 32.8865H454.907L454.908 29.9983ZM471.091 33.2114C471.091 32.4368 470.903 32.3097 470.564 32.1598C470.973 32.0208 471.208 31.63 471.208 31.1701C471.208 30.8122 471.005 29.9983 469.901 29.9983H467.804V34.147H468.656V32.5247H469.551C470.19 32.5247 470.228 32.7453 470.228 33.3088C470.228 33.7357 470.261 33.9523 470.32 34.1462H471.276V34.0379C471.091 33.968 471.091 33.8166 471.091 33.2114ZM469.67 31.827H468.654V30.7149H469.732C470.242 30.7149 470.341 31.0366 470.341 31.258C470.341 31.6661 470.121 31.827 469.67 31.827ZM459.749 32.8999C459.749 34.1438 458.476 34.2576 458.115 34.2576C456.6 34.2576 456.342 33.3872 456.342 32.87H457.171C457.177 33.1016 457.294 33.5403 458.052 33.5403C458.459 33.5403 458.917 33.4398 458.917 33.0058C458.917 32.6801 458.604 32.5953 458.166 32.4894L457.722 32.3842C457.051 32.2304 456.405 32.0781 456.405 31.1638C456.405 30.7023 456.652 29.8884 457.999 29.8884C459.271 29.8884 459.611 30.7188 459.617 31.2274H458.788C458.764 31.0429 458.695 30.605 457.936 30.605C457.609 30.605 457.214 30.7251 457.214 31.1002C457.214 31.4236 457.48 31.4934 457.655 31.535L458.663 31.7838C459.228 31.9212 459.749 32.1543 459.749 32.8999ZM464.794 33.4131H467.095V34.1493H463.945V30.0007H466.997V30.7361H464.794V31.608H466.817V32.3418H464.794V33.4131ZM457.704 28.7167H456.125V20.6155H457.907L461.124 26.2562H461.145V20.6155H462.724V28.7174H461.034L457.727 22.9418H457.706L457.704 28.7167Z" fill="#1C2033"/>
<path d="M504.963 2.85449H517.113C518.809 2.85449 519.864 4.23726 519.469 5.93835L513.812 30.226C513.413 31.922 511.714 33.3056 510.017 33.3056H497.867C496.174 33.3056 495.117 31.922 495.513 30.226L501.172 5.93835C501.568 4.23726 503.264 2.85449 504.963 2.85449Z" fill="#E21836"/>
<path d="M516.103 2.85449H530.075C531.771 2.85449 531.006 4.23726 530.607 5.93835L524.952 30.226C524.554 31.922 524.678 33.3056 522.978 33.3056H509.006C507.307 33.3056 506.255 31.922 506.654 30.226L512.31 5.93835C512.711 4.23726 514.406 2.85449 516.103 2.85449Z" fill="#00447C"/>
<path d="M529.521 2.85449H541.671C543.37 2.85449 544.425 4.23726 544.026 5.93835L538.37 30.226C537.971 31.922 536.272 33.3056 534.573 33.3056H522.428C520.729 33.3056 519.675 31.922 520.073 30.226L525.73 5.93835C526.126 4.23726 527.822 2.85449 529.521 2.85449Z" fill="#007B84"/>
<path d="M508.137 10.6386C506.887 10.6513 506.518 10.6386 506.4 10.6109C506.355 10.8256 505.512 14.7154 505.509 14.7187C505.328 15.5053 505.196 16.0661 504.747 16.4291C504.492 16.6396 504.195 16.7407 503.85 16.7407C503.296 16.7407 502.974 16.4661 502.919 15.944L502.909 15.7646C502.909 15.7646 503.078 14.7103 503.078 14.7044C503.078 14.7044 503.962 11.1608 504.121 10.6917C504.129 10.6648 504.131 10.6513 504.134 10.6386C502.411 10.6538 502.106 10.6386 502.085 10.6109C502.073 10.6487 502.03 10.8685 502.03 10.8685L501.127 14.8636L501.049 15.2021L500.899 16.3103C500.899 16.6396 500.964 16.9074 501.092 17.1348C501.504 17.854 502.678 17.9617 503.342 17.9617C504.199 17.9617 505.001 17.7798 505.544 17.448C506.486 16.8914 506.732 16.0215 506.952 15.2484L507.054 14.8518C507.054 14.8518 507.966 11.1709 508.121 10.6917C508.127 10.6648 508.128 10.6513 508.137 10.6386ZM511.238 13.608C511.018 13.608 510.617 13.6619 510.256 13.8387C510.125 13.9052 510.001 13.9836 509.871 14.0602L509.988 13.6349L509.924 13.5633C509.159 13.7183 508.988 13.7385 508.281 13.8387L508.222 13.8774C508.14 14.5579 508.068 15.0699 507.763 16.4063C507.647 16.8998 507.527 17.3967 507.406 17.8885L507.439 17.9508C508.163 17.9129 508.383 17.9129 509.012 17.923L509.063 17.8683C509.143 17.4582 509.154 17.3621 509.331 16.5327C509.414 16.1394 509.588 15.2754 509.673 14.968C509.83 14.8947 509.985 14.8231 510.133 14.8231C510.486 14.8231 510.443 15.1305 510.43 15.2535C510.415 15.459 510.286 16.1318 510.154 16.7087L510.066 17.0809C510.005 17.3562 509.938 17.6241 509.876 17.8969L509.903 17.9508C510.617 17.9129 510.835 17.9129 511.444 17.923L511.516 17.8683C511.626 17.2283 511.658 17.0573 511.854 16.1259L511.952 15.6973C512.143 14.8602 512.239 14.4358 512.095 14.0897C511.941 13.7014 511.575 13.608 511.238 13.608ZM514.703 14.4855C514.324 14.5579 514.082 14.6067 513.841 14.6379C513.603 14.6758 513.37 14.7111 513.003 14.7617L512.975 14.7878L512.948 14.8088C512.91 15.0825 512.883 15.3183 512.832 15.5954C512.789 15.8825 512.724 16.2084 512.616 16.6775C512.533 17.0363 512.49 17.1609 512.442 17.2872C512.396 17.4135 512.346 17.5356 512.252 17.8885L512.274 17.9213L512.292 17.9508C512.634 17.9348 512.859 17.923 513.089 17.9213C513.319 17.9129 513.557 17.9213 513.927 17.923L513.959 17.8969L513.994 17.8683C514.047 17.5499 514.055 17.4641 514.088 17.3091C514.12 17.1424 514.175 16.9125 514.312 16.2969C514.377 16.008 514.448 15.7192 514.516 15.4244C514.585 15.1305 514.658 14.8417 514.727 14.552L514.717 14.5175L514.703 14.4855ZM514.711 13.3031C514.367 13.0993 513.761 13.1642 513.354 13.4446C512.948 13.72 512.902 14.1116 513.246 14.317C513.584 14.5149 514.191 14.456 514.596 14.173C515.001 13.8918 515.051 13.5044 514.711 13.3031ZM516.796 18.0148C517.493 18.0148 518.208 17.8228 518.746 17.2518C519.161 16.7895 519.35 16.1015 519.416 15.8177C519.63 14.8787 519.463 14.44 519.254 14.173C518.936 13.7655 518.373 13.6349 517.791 13.6349C517.44 13.6349 516.605 13.6694 515.952 14.2707C515.484 14.7053 515.268 15.2939 515.137 15.8581C515.005 16.4333 514.853 17.4691 515.806 17.8539C516.1 17.9803 516.522 18.0148 516.796 18.0148ZM516.741 15.9011C516.902 15.1895 517.092 14.5924 517.577 14.5924C517.957 14.5924 517.984 15.037 517.815 15.7503C517.785 15.9095 517.646 16.4981 517.459 16.7491C517.328 16.9343 517.173 17.0463 517.002 17.0463C516.951 17.0463 516.648 17.0464 516.643 16.5967C516.64 16.3743 516.686 16.1478 516.741 15.9011ZM521.159 17.923L521.214 17.8683C521.291 17.4582 521.304 17.3621 521.475 16.5327C521.561 16.1394 521.738 15.2754 521.821 14.968C521.979 14.8947 522.131 14.8231 522.284 14.8231C522.635 14.8231 522.592 15.1305 522.578 15.2535C522.565 15.459 522.437 16.131 522.303 16.7087L522.219 17.0809C522.155 17.3562 522.086 17.6241 522.025 17.8969L522.052 17.9508C522.768 17.9129 522.977 17.9129 523.59 17.923L523.665 17.8683C523.771 17.2283 523.801 17.0565 524.002 16.1259L524.098 15.6973C524.29 14.8602 524.387 14.4358 524.245 14.0897C524.087 13.7023 523.718 13.608 523.387 13.608C523.167 13.608 522.763 13.661 522.405 13.8387C522.276 13.9052 522.148 13.9827 522.022 14.0602L522.131 13.6349L522.072 13.5633C521.307 13.7183 521.133 13.7393 520.427 13.8387L520.373 13.8774C520.288 14.5579 520.218 15.0691 519.914 16.4063C519.797 16.8998 519.678 17.3967 519.557 17.8885L519.589 17.9508C520.315 17.9129 520.531 17.9129 521.159 17.923ZM526.421 17.9508C526.466 17.731 526.733 16.4291 526.736 16.4291C526.736 16.4291 526.964 15.4733 526.977 15.4387C526.977 15.4387 527.049 15.3385 527.121 15.2998H527.226C528.221 15.2998 529.345 15.2998 530.225 14.6522C530.824 14.2076 531.233 13.5515 531.416 12.7541C531.463 12.5587 531.499 12.3263 531.499 12.0938C531.499 11.7881 531.437 11.4867 531.26 11.25C530.812 10.6226 529.917 10.6109 528.885 10.6058C528.881 10.6058 528.376 10.6109 528.376 10.6109C527.055 10.6269 526.525 10.6227 526.308 10.5957C526.289 10.6917 526.255 10.8627 526.255 10.8627C526.255 10.8627 525.782 13.0564 525.782 13.0597C525.782 13.0597 524.649 17.7234 524.595 17.9432C525.749 17.9289 526.222 17.9289 526.421 17.9508ZM527.298 14.0551C527.298 14.0551 527.801 11.8656 527.798 11.874L527.815 11.762L527.822 11.6761L528.023 11.6972C528.023 11.6972 529.061 11.7865 529.085 11.7881C529.495 11.9473 529.664 12.3557 529.546 12.8888C529.438 13.3755 529.122 13.7857 528.716 13.9827C528.382 14.1511 527.972 14.1646 527.55 14.1646H527.277L527.298 14.0551ZM530.431 15.9415C530.298 16.5082 530.145 17.544 531.092 17.9129C531.394 18.0417 531.665 18.0796 531.94 18.0662C532.231 18.0502 532.5 17.9045 532.749 17.6948C532.727 17.7807 532.705 17.8674 532.682 17.9533L532.725 18.0089C533.406 17.9803 533.618 17.9803 534.356 17.9862L534.423 17.9348C534.531 17.3007 534.632 16.6859 534.913 15.4733C535.049 14.8922 535.186 14.317 535.325 13.7385L535.303 13.6753C534.541 13.8168 534.338 13.8463 533.604 13.9507L533.548 13.9962C533.541 14.0551 533.533 14.1116 533.527 14.168C533.412 13.9836 533.247 13.8269 532.992 13.7284C532.666 13.6004 531.9 13.7654 531.242 14.365C530.779 14.7928 530.557 15.3789 530.431 15.9415ZM532.032 15.976C532.195 15.2779 532.382 14.6867 532.868 14.6867C533.175 14.6867 533.337 14.9697 533.304 15.4531C533.278 15.5735 533.25 15.7006 533.217 15.8447C533.168 16.0518 533.115 16.2581 533.064 16.4644C533.012 16.6051 532.951 16.7381 532.885 16.8266C532.759 17.0034 532.462 17.1137 532.291 17.1137C532.242 17.1137 531.943 17.1137 531.932 16.6716C531.93 16.4518 531.975 16.2253 532.032 15.976ZM540.392 13.6694L540.333 13.6021C539.579 13.7553 539.442 13.7798 538.749 13.8732L538.699 13.9238C538.696 13.9322 538.695 13.9448 538.69 13.9566L538.689 13.9448C538.173 15.1356 538.188 14.8787 537.768 15.8152C537.765 15.7731 537.765 15.7461 537.763 15.7006L537.658 13.6694L537.591 13.6021C536.802 13.7553 536.783 13.7798 536.053 13.8732L535.997 13.9238C535.988 13.9482 535.988 13.9751 535.984 14.0038L535.988 14.0139C536.08 14.4804 536.058 14.3768 536.149 15.112C536.192 15.4733 536.248 15.8362 536.291 16.1924C536.364 16.7895 536.403 17.0834 536.492 17.9937C535.999 18.8072 535.882 19.1146 535.408 19.8287L535.411 19.8355L535.077 20.3643C535.038 20.4199 535.004 20.4578 534.956 20.4746C534.902 20.5007 534.833 20.5058 534.737 20.5058H534.551L534.276 21.4203L535.22 21.4372C535.774 21.4347 536.123 21.1753 536.31 20.8275L536.904 19.8102H536.894L536.957 19.7386C537.356 18.8788 540.392 13.6694 540.392 13.6694ZM530.431 25.6882H530.03L531.512 20.7871H532.004L532.16 20.2818L532.175 20.8435C532.156 21.1904 532.43 21.4978 533.147 21.4473H533.976L534.262 20.5033H533.95C533.771 20.5033 533.687 20.4578 533.698 20.3609L533.682 19.7891H532.146V19.7925C531.649 19.8026 530.167 19.8405 529.866 19.9205C529.503 20.014 529.12 20.2894 529.12 20.2894L529.271 19.7832H527.834L527.534 20.7871L526.033 25.7632H525.741L525.455 26.7004H528.317L528.221 27.0129H529.632L529.725 26.7004H530.121L530.431 25.6882ZM529.256 21.7824C529.026 21.8465 528.599 22.0393 528.599 22.0393L528.979 20.7871H530.121L529.845 21.6991C529.845 21.6991 529.493 21.7201 529.256 21.7824ZM529.278 23.5728C529.278 23.5728 528.919 23.6174 528.684 23.6705C528.451 23.7412 528.015 23.9635 528.015 23.9635L528.408 22.6599H529.556L529.278 23.5728ZM528.639 25.7H527.494L527.825 24.5993H528.967L528.639 25.7ZM531.397 22.6599H533.047L532.81 23.428H531.137L530.887 24.2676H532.35L531.242 25.828C531.164 25.9425 531.095 25.9838 531.017 26.0158C530.94 26.0554 530.838 26.1017 530.72 26.1017H530.314L530.035 27.0213H531.097C531.649 27.0213 531.975 26.7703 532.216 26.4402L532.976 25.4002L533.139 26.4562C533.174 26.6541 533.316 26.7703 533.412 26.815C533.518 26.868 533.628 26.9598 533.783 26.9733C533.95 26.9809 534.07 26.9859 534.15 26.9859H534.672L534.985 25.9569H534.78C534.661 25.9569 534.458 25.9366 534.423 25.8996C534.389 25.8549 534.389 25.7859 534.37 25.6798L534.205 24.6221H533.527L533.824 24.2676H535.493L535.75 23.428H534.205L534.445 22.6599H535.986L536.272 21.7125H531.678L531.397 22.6599ZM517.454 25.9139L517.84 24.6322H519.423L519.712 23.6789H518.128L518.369 22.8898H519.918L520.205 21.9669H516.33L516.048 22.8898H516.929L516.694 23.6789H515.811L515.519 24.6482H516.399L515.885 26.3442C515.816 26.5691 515.918 26.6541 515.983 26.7585C516.048 26.8604 516.116 26.927 516.266 26.9657C516.421 27.0002 516.528 27.0213 516.672 27.0213H518.457L518.775 25.9653L517.984 26.0739C517.831 26.0739 517.408 26.0554 517.454 25.9139ZM517.636 19.7782L517.234 20.5033C517.148 20.6616 517.072 20.7601 517.002 20.8056C516.94 20.8435 516.819 20.8595 516.643 20.8595H516.433L516.154 21.7875H516.849C517.184 21.7875 517.44 21.6646 517.562 21.6031C517.695 21.5332 517.729 21.5728 517.831 21.4751L518.066 21.2713H520.237L520.526 20.3054H518.936L519.214 19.7782H517.636ZM520.842 25.9324C520.805 25.8794 520.831 25.7851 520.888 25.5897L521.481 23.6259H523.592C523.9 23.6208 524.123 23.6174 524.267 23.6073C524.422 23.5905 524.591 23.5357 524.774 23.4355C524.965 23.332 525.062 23.2216 525.144 23.0953C525.235 22.9698 525.382 22.6945 525.508 22.27L526.254 19.7832L524.064 19.7967C524.064 19.7967 523.388 19.8961 523.092 20.0056C522.792 20.1285 522.363 20.4704 522.363 20.4704L522.561 19.7891H521.208L519.313 26.0739C519.246 26.3173 519.201 26.495 519.19 26.6011C519.187 26.7156 519.335 26.8293 519.431 26.9143C519.545 27.0002 519.712 26.9859 519.873 27.0002C520.042 27.0129 520.283 27.0213 520.614 27.0213H521.654L521.974 25.9425L521.043 26.031C520.944 26.031 520.871 25.9779 520.842 25.9324ZM521.864 22.2987H524.081L523.941 22.7408C523.921 22.7509 523.873 22.7189 523.648 22.745H521.728L521.864 22.2987ZM522.309 20.8165H524.545L524.384 21.3488C524.384 21.3488 523.33 21.3386 523.161 21.3698C522.418 21.4978 521.984 21.8953 521.984 21.8953L522.309 20.8165ZM523.99 24.2204C523.972 24.2861 523.943 24.3265 523.903 24.3568C523.857 24.3854 523.785 24.3964 523.675 24.3964H523.36L523.378 23.8583H522.064L522.011 26.4891C522.009 26.6786 522.027 26.7889 522.166 26.8764C522.305 26.9868 522.733 27.0002 523.309 27.0002H524.133L524.43 26.0158L523.713 26.0545L523.474 26.0688C523.442 26.0545 523.411 26.0419 523.376 26.0074C523.346 25.9779 523.295 25.9964 523.303 25.8061L523.309 25.1316L524.061 25.1004C524.467 25.1004 524.64 24.969 524.789 24.8427C524.93 24.7223 524.976 24.5834 525.03 24.3964L525.155 23.7993H524.122L523.99 24.2204Z" fill="#FEFEFE"/>
<path d="M800.675 21.4411H803.924H804.317C804.988 21.311 805.469 20.7179 805.456 20.0349C805.432 19.3647 804.967 18.791 804.317 18.6286C804.186 18.6134 804.054 18.6134 803.924 18.6286H800.675V21.4411Z" fill="#40A648"/>
<path d="M803.544 0.951172C800.437 0.951172 797.919 3.46956 797.919 6.57617V12.4125H805.864C806.051 12.3908 806.24 12.3908 806.426 12.4125C808.213 12.4969 809.548 13.425 809.548 15.0281C809.512 16.4336 808.38 17.565 806.975 17.6012C808.803 17.7281 810.195 18.7406 810.195 20.3293C810.195 21.9188 808.648 23.1418 806.609 23.1418H797.891V34.7012H806.159C809.266 34.7012 811.784 32.1828 811.784 29.0762V0.951172H803.544Z" fill="#40A648"/>
<path d="M805.062 15.4502C805.113 14.7543 804.615 14.1388 803.924 14.0439H803.614H800.675V16.7576H803.614C803.716 16.7737 803.821 16.7737 803.924 16.7576C804.584 16.6724 805.075 16.1027 805.062 15.4357V15.4502Z" fill="#40A648"/>
<path d="M772.409 0.951172C769.303 0.951172 766.784 3.46956 766.784 6.57617V20.4562C768.284 21.2421 769.943 21.6745 771.636 21.7219C772.424 21.8135 773.212 21.5539 773.792 21.0123C774.372 20.4707 774.683 19.7017 774.646 18.9094V12.3844H779.44V18.9094C779.44 21.4406 777.865 23.5074 772.522 23.5074C770.587 23.5066 768.661 23.2704 766.784 22.8043V34.7012H775.039C778.145 34.7012 780.664 32.1828 780.664 29.0762V0.951172H772.409Z" fill="#0D67B0"/>
<path d="M788.005 0.951172C784.898 0.951172 782.38 3.46956 782.38 6.57617V13.9313C783.786 12.7219 786.275 11.948 790.255 12.1449C791.744 12.2341 793.222 12.4599 794.671 12.8199V15.1969C793.365 14.4962 791.928 14.0743 790.452 13.9594C787.428 13.748 785.6 15.225 785.6 17.8262C785.6 20.4281 787.428 21.9324 790.452 21.6938C791.925 21.5588 793.357 21.1385 794.671 20.4562V22.8324C793.222 23.1956 791.745 23.4222 790.255 23.5074C786.275 23.7043 783.8 22.9313 782.38 21.7219V34.7012H790.69C793.797 34.7012 796.315 32.1828 796.315 29.0762V0.951172H788.005Z" fill="#BE2034"/>
<path fill-rule="evenodd" clip-rule="evenodd" d="M841.944 24.0259C841.944 24.9396 841.41 27.2177 838.162 27.2177H835.616V26.979C835.629 26.9774 835.641 26.9766 835.653 26.975C836.178 26.922 836.446 26.8947 836.446 26.2759V21.8458C836.446 21.0583 836.024 21.0583 835.616 21.0583V20.8197H838.274C839.193 20.7297 840.107 21.023 840.802 21.6297C841.497 22.2372 841.911 23.1042 841.944 24.0259ZM838.063 21.1572C837.824 21.1435 837.585 21.1435 837.346 21.1572L837.29 26.1353C837.29 26.8384 837.796 26.9228 838.246 26.9228C838.985 26.9517 839.699 26.6576 840.204 26.1176C840.709 25.5776 840.954 24.8456 840.876 24.1103C840.914 23.3405 840.635 22.5883 840.103 22.0299C839.572 21.4722 838.835 21.1564 838.063 21.1572Z" fill="#211E1F"/>
<path d="M844.222 27.2188V26.9802H844.068C843.8 26.9802 843.603 26.9802 843.603 26.6708V23.1552V23.0282C843.548 23.0153 843.491 23.0153 843.435 23.0282C843.113 23.1584 842.784 23.2717 842.45 23.3657V23.5063C842.788 23.6895 842.928 23.7458 842.928 24.1532V26.6282C842.928 26.9376 842.746 26.9376 842.493 26.9376H842.31V27.2188H844.278H844.222Z" fill="#211E1F"/>
<path d="M843.238 21.6773C843.36 21.6773 843.477 21.6283 843.562 21.5407C843.646 21.4531 843.692 21.335 843.688 21.2129C843.681 20.9702 843.482 20.7773 843.238 20.7773C842.99 20.7773 842.788 20.979 842.788 21.2273C842.788 21.4756 842.99 21.6773 843.238 21.6773Z" fill="#211E1F"/>
<path d="M849.075 27.0354H848.92C848.653 27.0354 848.456 27.0353 848.456 26.726V24.4061C848.456 23.7029 848.189 23.126 847.401 23.126C846.815 23.1742 846.26 23.4169 845.826 23.8154V23.2248C845.826 23.1541 845.826 23.126 845.826 23.126C845.432 23.2939 845.028 23.4394 844.617 23.5623V23.7447C845.039 23.9135 845.151 24.0123 845.151 24.3498V26.7686C845.151 27.0779 844.969 27.0779 844.701 27.0779H844.547V27.2186H846.501V26.9791H846.332C846.079 26.9791 845.882 26.9791 845.882 26.6697V24.026C846.19 23.7889 846.553 23.6346 846.938 23.576C847.159 23.5462 847.383 23.617 847.546 23.7696C847.71 23.9223 847.796 24.1401 847.781 24.3635V26.726C847.781 27.0353 847.598 27.0354 847.345 27.0354H847.176V27.2186H849.075V27.0354Z" fill="#211E1F"/>
<path fill-rule="evenodd" clip-rule="evenodd" d="M852.492 26.3733C852.129 26.9784 851.493 27.3673 850.79 27.4139C850.296 27.4035 849.828 27.1946 849.489 26.8354C849.15 26.4754 848.97 25.9948 848.99 25.5014C848.99 23.7014 850.199 23.1671 850.832 23.1671C851.228 23.1277 851.624 23.2579 851.919 23.5263C852.214 23.7947 852.381 24.1747 852.379 24.5733V24.7421H852.295H849.721C849.706 24.9205 849.706 25.0988 849.721 25.2764C849.689 26.0953 850.311 26.792 851.127 26.8514C851.605 26.8257 852.05 26.6072 852.365 26.2472L852.492 26.3733ZM850.79 23.3792C850.802 23.3784 850.813 23.3784 850.824 23.3792H850.79ZM850.835 23.3792C850.831 23.3792 850.827 23.3792 850.824 23.3792H850.86C850.852 23.3792 850.843 23.3792 850.835 23.3792ZM850.835 23.3792C851.039 23.3864 851.232 23.474 851.372 23.6243C851.523 23.7858 851.597 24.0036 851.577 24.223C851.577 24.3355 851.577 24.448 851.324 24.448H849.805C849.916 23.7971 850.286 23.3913 850.835 23.3792Z" fill="#211E1F"/>
<path d="M852.9 27.0348H852.646V27.2173H855.023V26.9786H854.517C854.25 26.9786 854.067 26.9786 854.067 26.6692V24.5735C854.07 24.1878 854.359 23.8632 854.742 23.8141C855.065 23.8141 855.065 24.0391 855.346 24.0391C855.465 24.0359 855.576 23.9845 855.656 23.8969C855.735 23.8093 855.776 23.6928 855.768 23.5755C855.768 23.4397 855.713 23.3095 855.614 23.2171C855.516 23.1239 855.383 23.0748 855.248 23.0829C854.7 23.0829 854.306 23.6735 854.081 24.0255V23.2098C854.081 23.111 854.081 23.0829 853.996 23.0829C853.912 23.0829 853.546 23.3223 852.871 23.6036V23.7442C853.012 23.7442 853.35 23.8704 853.35 24.1516V26.7255C853.336 27.0348 853.153 27.0348 852.9 27.0348Z" fill="#211E1F"/>
<path d="M857.33 27.1191C856.717 27.0862 856.225 26.6049 856.177 25.9942H856.008L856.12 27.0348C856.458 27.2333 856.84 27.3442 857.231 27.3586C858.314 27.3586 858.806 26.7117 858.806 26.1067C858.806 24.7004 856.683 24.9961 856.683 23.9274C856.693 23.7498 856.776 23.585 856.911 23.4709C857.047 23.3568 857.224 23.303 857.4 23.3223C857.923 23.2982 858.368 23.7 858.398 24.2223H858.637L858.567 23.2942C858.245 23.127 857.889 23.0354 857.527 23.0274C857.18 22.984 856.832 23.086 856.565 23.3102C856.298 23.5344 856.137 23.8599 856.12 24.2086C856.12 25.6149 858.117 25.3336 858.117 26.416C858.134 26.6225 858.053 26.8259 857.899 26.9641C857.744 27.1023 857.533 27.1593 857.33 27.1191Z" fill="#211E1F"/>
<path d="M866.878 26.9228L867.089 25.5873H866.878C866.739 26.4986 865.958 27.1728 865.036 27.176C863.41 27.0418 862.194 25.6259 862.307 23.9978C862.22 23.261 862.45 22.5217 862.941 21.9656C863.433 21.4095 864.139 21.0897 864.881 21.0873C865.84 20.9619 866.719 21.6345 866.85 22.5916H867.075L866.976 21.2842C866.293 20.9981 865.565 20.8318 864.825 20.7916C862.977 20.7361 861.428 22.1785 861.351 24.026C861.297 24.9661 861.649 25.8838 862.32 26.5436C862.991 27.2041 863.915 27.5424 864.853 27.4717C865.559 27.4291 866.247 27.2427 866.878 26.9228Z" fill="#211E1F"/>
<path d="M869.366 27.218V26.9793H869.212C868.944 26.9793 868.747 26.9793 868.747 26.6699V20.3418V20.2148C868.747 20.2148 868.649 20.2148 868.55 20.3137C868.25 20.4744 867.935 20.607 867.608 20.7074V20.8617C867.946 20.9606 868.087 20.9742 868.087 21.5793V26.6699C868.087 26.9793 867.903 26.9793 867.65 26.9793H867.468V27.218H869.437H869.366Z" fill="#211E1F"/>
<path d="M869.887 23.9693V26.3174C869.855 26.6002 869.945 26.8831 870.137 27.0928C870.328 27.3034 870.601 27.4207 870.886 27.4143C871.507 27.3709 872.089 27.0952 872.517 26.6412V27.3861C872.95 27.2568 873.391 27.1579 873.839 27.0912V26.9361H873.543C873.389 26.9361 873.276 26.9361 873.276 26.7674V23.3924C873.276 23.2943 873.276 23.2236 873.276 23.2236C873.276 23.2236 872.671 23.2943 871.87 23.3506V23.5193C872.193 23.6037 872.629 23.7162 872.629 23.885V26.36C872.327 26.6493 871.945 26.8405 871.532 26.908C870.73 26.908 870.73 26.1205 870.73 25.8537V23.4912C870.73 23.2943 870.73 23.2236 870.632 23.2236L869.451 23.2943V23.4631C869.887 23.5049 869.887 23.7299 869.887 23.9693Z" fill="#211E1F"/>
<path fill-rule="evenodd" clip-rule="evenodd" d="M874.373 25.5299V21.5924C874.373 21.05 874.242 21.0178 873.88 20.9278C873.866 20.9246 873.853 20.9214 873.839 20.9174V20.7631C874.167 20.6683 874.483 20.5357 874.781 20.3693L874.992 20.2705C875.062 20.2705 875.062 20.3975 875.062 20.3975V23.758C875.441 23.3827 875.938 23.1497 876.468 23.0975C876.953 23.1192 877.408 23.3361 877.728 23.6993C878.049 24.0626 878.209 24.5407 878.17 25.0236C878.218 26.2901 877.241 27.3604 875.976 27.4287C875.534 27.4263 875.1 27.3154 874.711 27.1049L874.43 27.3162L874.246 27.2174C874.333 26.6597 874.376 26.0956 874.373 25.5299ZM875.976 23.533C875.643 23.5692 875.334 23.7243 875.105 23.9685L875.034 26.1904C875.055 26.7015 875.464 27.1113 875.976 27.133C876.974 27.133 877.383 26.1623 877.383 25.3467C877.434 24.4756 876.833 23.7001 875.976 23.533Z" fill="#211E1F"/>
<path d="M836.334 29.2713H835.602V29.4682H835.7C835.884 29.4682 836.038 29.4682 836.052 29.7357V32.3369C836.052 32.59 835.884 32.6045 835.7 32.6045H835.574V32.8432H836.305H837.093V32.6607H837.05C836.868 32.6607 836.699 32.6608 836.699 32.3932V29.7076C836.699 29.4545 836.868 29.44 837.05 29.44H837.149V29.2432L836.334 29.2713Z" fill="#211E1F"/>
<path d="M840.707 29.2711H840.004V29.468H840.131C840.285 29.468 840.538 29.468 840.553 29.918V31.7461L838.359 29.2848C838.19 29.2848 838.049 29.2848 837.894 29.2848H837.318V29.4816H837.403C837.517 29.4784 837.628 29.521 837.71 29.6006C837.792 29.6801 837.839 29.7894 837.838 29.9035V32.0129C837.838 32.4066 837.74 32.618 837.403 32.618H837.29V32.843H837.979H838.612V32.6598H838.499C838.134 32.6598 838.063 32.5336 838.049 32.0973V30.0305L840.581 32.843H840.819C840.819 32.6879 840.819 32.5191 840.819 32.3504V30.0305C840.819 29.4535 841.044 29.4254 841.241 29.4254H841.34V29.2285L840.707 29.2711Z" fill="#211E1F"/>
<path d="M844.785 29.0879C844.785 29.2141 844.672 29.214 844.532 29.214H841.931C841.804 29.214 841.719 29.2141 841.678 29.0879H841.522C841.53 29.2237 841.53 29.3595 841.522 29.4953C841.522 29.6504 841.522 29.791 841.522 29.9172H841.719C841.804 29.5515 841.804 29.4816 842.169 29.4816H842.957V32.1254C842.957 32.5047 842.844 32.5047 842.563 32.5191H842.451V32.8422H843.294H844.096V32.6598H843.984C843.744 32.6598 843.59 32.6598 843.59 32.2516V29.5379H844.378C844.701 29.5379 844.715 29.8047 844.729 30.0016L844.912 29.9316V29.5234C844.912 29.3973 844.912 29.2566 844.912 29.116H844.771L844.785 29.0879Z" fill="#211E1F"/>
<path d="M847.767 31.8863C847.627 32.4488 847.374 32.4769 846.783 32.4769C846.459 32.4769 846.192 32.4769 846.192 32.1676V31.0289H846.769C847.106 31.0289 847.106 31.2113 847.134 31.507H847.317C847.317 31.3102 847.317 31.1269 847.317 30.9445C847.317 30.7613 847.317 30.5508 847.317 30.3539H847.121C847.121 30.6207 847.036 30.7613 846.755 30.7758H846.178V29.5102H846.853C847.359 29.5102 847.402 29.7488 847.43 30.0727H847.599C847.599 29.932 847.599 29.7351 847.599 29.5664V29.2852H846.319H845.081V29.482H845.165C845.349 29.482 845.503 29.482 845.517 29.7488V32.3508C845.517 32.6039 845.349 32.6176 845.165 32.6176H845.081V32.8426H846.403H847.809C847.809 32.5894 847.922 32.3226 847.978 32.0551H847.824L847.767 31.8863Z" fill="#211E1F"/>
<path fill-rule="evenodd" clip-rule="evenodd" d="M850.242 31.0295L851.086 32.2807C851.15 32.5121 851.366 32.6696 851.606 32.6607V32.8432L851.058 32.7588H850.58C850.196 32.2493 849.848 31.7141 849.539 31.1557H849.243V32.2807C849.258 32.6608 849.398 32.6607 849.637 32.6607H849.721V32.8432H848.864H848.146V32.5764H848.259C848.442 32.5764 848.596 32.492 848.596 32.3232V29.792C848.596 29.44 848.414 29.44 848.259 29.44H848.146V29.2432H848.92H849.721C850.34 29.2432 850.931 29.4264 850.931 30.1432C850.921 30.5578 850.642 30.9178 850.242 31.0295ZM849.455 30.9307C849.946 30.9307 850.2 30.7619 850.2 30.1713C850.2 29.9897 850.125 29.8153 849.991 29.6924C849.857 29.5694 849.677 29.5083 849.496 29.5244H849.23V30.9307H849.455Z" fill="#211E1F"/>
<path d="M855.727 29.44V29.2432H855.108H854.405V29.44H854.531C854.686 29.44 854.939 29.44 854.953 29.89V31.7182L852.731 29.2576C852.562 29.2576 852.422 29.2576 852.267 29.2576H851.69V29.4545H851.775C851.889 29.4505 852 29.4931 852.083 29.5726C852.165 29.6522 852.211 29.7615 852.211 29.8764V31.9713C852.211 32.3795 852.112 32.59 851.775 32.59H851.69V32.8432H852.38H853.012V32.6607H852.9C852.534 32.6607 852.464 32.5338 852.464 32.0982V30.0307L854.981 32.8432H855.22C855.22 32.6889 855.22 32.5201 855.22 32.3514V30.0307C855.22 29.4545 855.446 29.4264 855.642 29.4264H855.74L855.727 29.44Z" fill="#211E1F"/>
<path fill-rule="evenodd" clip-rule="evenodd" d="M858.699 32.0221C858.759 32.1499 858.819 32.2793 858.819 32.3926C858.82 32.5035 858.879 32.6055 858.974 32.6602C859.07 32.7156 859.188 32.7156 859.284 32.6602V32.8426H858.609H857.849V32.6602H857.919C858.046 32.6602 858.215 32.632 858.215 32.5332C858.197 32.4127 858.164 32.2945 858.116 32.182L857.919 31.6195H856.822L856.668 32.1258C856.622 32.2495 856.585 32.3765 856.556 32.5051C856.556 32.6601 856.753 32.6602 856.907 32.6602H856.991V32.8426H856.387H855.853V32.5894C856.046 32.5919 856.218 32.4657 856.274 32.2801L857.062 29.9883C857.142 29.7826 857.208 29.5704 857.259 29.3551C857.422 29.3044 857.578 29.2337 857.722 29.1445V29.2707L858.637 31.8863C858.655 31.9313 858.677 31.9763 858.699 32.0221ZM856.794 31.2121H857.666L857.231 29.8758L856.794 31.2121Z" fill="#211E1F"/>
<path d="M862.096 29.0879C862.096 29.2141 861.984 29.214 861.843 29.214H859.256C859.129 29.214 859.031 29.2141 859.003 29.0879H858.834C858.848 29.2229 858.848 29.3595 858.834 29.4953C858.834 29.6504 858.834 29.791 858.834 29.9316H859.031C859.101 29.566 859.101 29.4953 859.466 29.4953H860.268V32.139C860.268 32.5191 860.141 32.5191 859.875 32.5328H859.748V32.8422H860.591H861.407V32.6598H861.295C861.056 32.6598 860.901 32.6598 860.901 32.2516V29.5379H861.703C862.012 29.5379 862.026 29.8047 862.04 30.0016L862.223 29.9316C862.215 29.7958 862.215 29.6592 862.223 29.5234C862.223 29.3973 862.223 29.2566 862.223 29.116H862.082L862.096 29.0879Z" fill="#211E1F"/>
<path d="M863.165 29.2713H862.42V29.4682H862.504C862.687 29.4682 862.855 29.4682 862.855 29.7357V32.3369C862.855 32.59 862.687 32.6045 862.504 32.6045H862.42V32.8432H863.151H863.939V32.6607H863.84C863.657 32.6607 863.502 32.6608 863.502 32.3932V29.7076C863.502 29.4545 863.657 29.44 863.84 29.44H863.939V29.2432L863.165 29.2713Z" fill="#211E1F"/>
<path fill-rule="evenodd" clip-rule="evenodd" d="M864.605 29.7124C864.954 29.3636 865.429 29.1691 865.922 29.1732C866.415 29.1258 866.906 29.2873 867.275 29.6192C867.644 29.9502 867.857 30.4211 867.863 30.9169C867.883 31.4312 867.687 31.9302 867.325 32.2958C866.963 32.6607 866.464 32.8591 865.95 32.8431C865.454 32.8712 864.971 32.6912 864.613 32.3465C864.255 32.0025 864.057 31.5252 864.066 31.0294C864.062 30.536 864.256 30.0619 864.605 29.7124ZM867.117 31.0294C867.117 30.2982 866.723 29.44 865.922 29.44C865.064 29.44 864.811 30.1993 864.811 30.8607C864.811 31.7462 865.064 32.5763 866.006 32.5763C866.948 32.5763 867.117 31.7607 867.117 31.0294Z" fill="#211E1F"/>
<path d="M871.996 29.44V29.2432H871.391H870.687V29.44H870.814C870.955 29.44 871.222 29.44 871.222 29.89V31.7182L869.028 29.2576C868.859 29.2576 868.719 29.2576 868.578 29.2576H868.002V29.4545H868.086C868.2 29.4505 868.309 29.4931 868.389 29.5734C868.469 29.653 868.512 29.7631 868.508 29.8764V31.9857C868.508 32.3795 868.409 32.59 868.086 32.59H868.002V32.8432H868.677H869.324V32.6607H869.225C868.846 32.6607 868.789 32.5338 868.775 32.0982V30.0307L871.293 32.8432H871.518C871.503 32.6792 871.503 32.5145 871.518 32.3514V30.0307C871.518 29.4545 871.728 29.4264 871.939 29.4264H872.037L871.996 29.44Z" fill="#211E1F"/>
<path fill-rule="evenodd" clip-rule="evenodd" d="M874.907 31.8863C874.96 32.0583 875.021 32.227 875.09 32.3926C875.095 32.4834 875.14 32.5669 875.214 32.6184C875.289 32.6706 875.383 32.6859 875.469 32.6602V32.8426H874.78H874.035V32.6602H874.105C874.218 32.6602 874.387 32.632 874.387 32.5332C874.367 32.4135 874.334 32.2953 874.288 32.182L874.105 31.6195H873.191L873.037 32.1258C872.985 32.2471 872.947 32.3749 872.924 32.5051C872.924 32.6601 873.107 32.6602 873.275 32.6602V32.8426H872.671H872.137V32.5894C872.326 32.5854 872.49 32.4609 872.544 32.2801L873.346 29.9883C873.426 29.7826 873.492 29.5704 873.543 29.3551C873.7 29.302 873.852 29.2313 873.993 29.1445V29.2707L874.907 31.8863ZM873.051 31.2121H873.923L873.501 29.8758L873.051 31.2121Z" fill="#211E1F"/>
<path d="M878.325 31.8732C878.294 31.9986 878.242 32.1175 878.17 32.2244C878.053 32.365 877.887 32.455 877.706 32.4775H877.059C876.905 32.4775 876.778 32.4076 876.778 32.2107V29.6932C876.778 29.44 876.905 29.44 877.087 29.44H877.242V29.2432H876.483H875.695V29.44H875.78C875.962 29.44 876.131 29.44 876.131 29.7076V32.267C876.131 32.5619 875.962 32.5764 875.78 32.5764H875.695V32.8432H877.017H878.325C878.325 32.5619 878.452 32.2807 878.508 31.9994H878.325V31.8732Z" fill="#211E1F"/>
<path fill-rule="evenodd" clip-rule="evenodd" d="M877.817 29.6591C877.813 29.3739 878.038 29.1376 878.324 29.1296C878.465 29.1223 878.603 29.1738 878.705 29.2726C878.807 29.3715 878.862 29.5089 878.858 29.6503C878.858 29.9356 878.628 30.1678 878.342 30.1702C878.057 30.1726 877.823 29.9444 877.817 29.6591ZM877.903 29.6085C877.903 29.8415 878.091 30.0304 878.325 30.0304C878.436 30.0304 878.544 29.9862 878.623 29.9066C878.702 29.8279 878.746 29.7202 878.746 29.6085C878.746 29.3755 878.558 29.1866 878.325 29.1866C878.091 29.1866 877.903 29.3755 877.903 29.6085Z" fill="#211E1F"/>
<path fill-rule="evenodd" clip-rule="evenodd" d="M878.55 29.5098C878.551 29.5853 878.497 29.6512 878.423 29.6649V29.7774L878.536 29.9035H878.437C878.401 29.9035 878.37 29.8561 878.326 29.7886C878.303 29.7516 878.275 29.709 878.24 29.6649V29.8336H878.1V29.4399V29.3691H878.367C878.465 29.3691 878.55 29.4117 878.55 29.5098ZM878.268 29.4262V29.6649H878.282C878.381 29.6649 878.381 29.6086 878.381 29.5387C878.386 29.5074 878.375 29.476 878.354 29.4535C878.331 29.431 878.3 29.4214 878.268 29.4262Z" fill="#211E1F"/>
<path d="M859.143 19.6101C864.081 19.6383 868.162 15.7675 868.396 10.8351C868.366 8.41959 867.371 6.11655 865.633 4.43869C863.895 2.76164 861.558 1.84879 859.143 1.90584H854.924C852.541 1.8512 850.239 2.7745 848.555 4.462C846.87 6.1487 845.95 8.45174 846.009 10.8351C846.062 15.7136 850.045 19.6334 854.924 19.6101H859.143Z" fill="#0779BE"/>
<path fill-rule="evenodd" clip-rule="evenodd" d="M855.009 2.6377C850.536 2.6377 846.909 6.26421 846.909 10.7377C846.909 15.2112 850.536 18.8377 855.009 18.8377C859.483 18.8377 863.109 15.2112 863.109 10.7377C863.109 6.26421 859.483 2.6377 855.009 2.6377ZM849.877 10.7377C849.878 8.61305 851.186 6.70778 853.167 5.94198V15.5326C851.183 14.77 849.874 12.8631 849.877 10.7377ZM860.14 10.7377C860.14 8.60904 858.826 6.70136 856.837 5.94198V15.5326C858.826 14.7732 860.14 12.8656 860.14 10.7377Z" fill="white"/>
<path d="M859.143 19.6101C864.081 19.6383 868.162 15.7675 868.396 10.8351C868.366 8.41959 867.371 6.11655 865.633 4.43869C863.895 2.76164 861.558 1.84879 859.143 1.90584H854.924C852.541 1.8512 850.239 2.7745 848.555 4.462C846.87 6.1487 845.95 8.45174 846.009 10.8351C846.062 15.7136 850.045 19.6334 854.924 19.6101H859.143Z" fill="#0779BE"/>
<path fill-rule="evenodd" clip-rule="evenodd" d="M855.009 2.6377C850.536 2.6377 846.909 6.26421 846.909 10.7377C846.909 15.2112 850.536 18.8377 855.009 18.8377C859.483 18.8377 863.109 15.2112 863.109 10.7377C863.109 6.26421 859.483 2.6377 855.009 2.6377ZM849.877 10.7377C849.878 8.61305 851.186 6.70778 853.167 5.94198V15.5326C851.183 14.77 849.874 12.8631 849.877 10.7377ZM860.14 10.7377C860.14 8.60904 858.826 6.70136 856.837 5.94198V15.5326C858.826 14.7732 860.14 12.8656 860.14 10.7377Z" fill="white"/>
<g opacity="0.01">
<path opacity="0.01" d="M416.456 0H362.021V36H416.456V0Z" fill="#ECECF1"/>
</g>
<path d="M396.417 6.27246H382.06V29.7287H396.417V6.27246Z" fill="#7272B5"/>
<path d="M383.606 18.0003C383.582 13.4353 385.656 9.11204 389.231 6.27254C383.115 1.46212 374.328 2.16067 369.048 7.87695C363.768 13.5936 363.768 22.4079 369.048 28.1245C374.328 33.8403 383.115 34.5394 389.231 29.7285C385.656 26.8894 383.582 22.5662 383.606 18.0003Z" fill="#ED1C24"/>
<path fill-rule="evenodd" clip-rule="evenodd" d="M411.929 26.7611V27.2392H411.844V26.7611H411.647V26.6631H412.14V26.7611H411.929ZM412.885 26.6631V27.2392H412.787V26.8037L412.632 27.183H412.519L412.351 26.8037V27.2392H412.253V26.6631H412.393L412.576 27.0705L412.744 26.6631H412.885Z" fill="#00A1DE"/>
<path d="M413.363 18.0003C413.359 23.7089 410.099 28.9152 404.965 31.4103C399.831 33.9054 393.723 33.2529 389.231 29.7292C395.7 24.6354 396.82 15.2649 391.735 8.78975C391.006 7.85198 390.165 7.00687 389.231 6.27256C393.723 2.7485 399.831 2.0956 404.965 4.59093C410.099 7.08626 413.359 12.2925 413.363 18.0003Z" fill="#00A1DE"/>
<defs>
<clipPath id="clip0_1305_3175">
<rect width="78.031" height="30.4511" fill="white" transform="translate(664.963 2.85449)"/>
</clipPath>
<clipPath id="clip1_1305_3175">
<rect width="40.9187" height="30.4511" fill="white" transform="translate(223.087 2.85449)"/>
</clipPath>
<clipPath id="clip2_1305_3175">
<rect width="73.273" height="30.4511" fill="white" transform="translate(567.9 2.85449)"/>
</clipPath>
<clipPath id="clip3_1305_3175">
<rect width="50.4347" height="30.4511" fill="white" transform="translate(287.796 2.85449)"/>
</clipPath>
<clipPath id="clip4_1305_3175">
<rect width="41.8703" height="30.4511" fill="white" transform="translate(157.427 2.85449)"/>
</clipPath>
<clipPath id="clip5_1305_3175">
<rect width="85.6438" height="28.5479" fill="white" transform="translate(0 3.80664)"/>
</clipPath>
</defs>
</svg>
